<?xml version="1.0" encoding="UTF-8" standalone="no"?>
<!DOCTYPE svg PUBLIC "-//W3C//DTD SVG 1.1//EN" "http://www.w3.org/Graphics/SVG/1.1/DTD/svg11.dtd">
<!-- Generated by graphviz version 2.40.1 (20161225.0304)
 -->
<!-- Title: e&#45;commerce Pages: 1 -->
<svg width="1362pt" height="838pt" viewBox="0.00 0.00 1362.47 837.60" xmlns="http://www.w3.org/2000/svg" xmlns:xlink="http://www.w3.org/1999/xlink">
<g id="graph0" class="graph" transform="scale(1 1) rotate(0) translate(4 833.6)">
<title>e-commerce</title>
<polygon fill="#ffffff" stroke="transparent" points="-4,4 -4,-833.6 1358.4661,-833.6 1358.4661,4 -4,4"/>
<!-- bank information -->
<g id="node1" class="node">
<title>bank information</title>
<polygon fill="none" stroke="#000000" points="492.7654,-263.1 492.7654,-421.5 993.2032,-421.5 993.2032,-263.1 492.7654,-263.1"/>
<text text-anchor="middle" x="742.9843" y="-404.9" font-family="Times,serif" font-size="14.00" fill="#000000">bank information</text>
<polyline fill="none" stroke="#000000" points="492.7654,-396.7 993.2032,-396.7 "/>
<text text-anchor="start" x="500.7654" y="-380.1" font-family="Times,serif" font-size="14.00" fill="#000000">bank_name : text</text>
<text text-anchor="start" x="500.7654" y="-363.3" font-family="Times,serif" font-size="14.00" fill="#000000"> iban : text</text>
<text text-anchor="start" x="500.7654" y="-346.5" font-family="Times,serif" font-size="14.00" fill="#000000"> user_id : int(11)</text>
<text text-anchor="start" x="500.7654" y="-329.7" font-family="Times,serif" font-size="14.00" fill="#000000"> credit_cart : text</text>
<text text-anchor="start" x="500.7654" y="-312.9" font-family="Times,serif" font-size="14.00" fill="#000000"> expiration_date /* Timstamps, not dates ; because of locales timezones */ : timestamp</text>
<text text-anchor="start" x="500.7654" y="-296.1" font-family="Times,serif" font-size="14.00" fill="#000000"> key : int(11)</text>
<polyline fill="none" stroke="#000000" points="492.7654,-287.9 993.2032,-287.9 "/>
<text text-anchor="start" x="500.7654" y="-271.3" font-family="Times,serif" font-size="14.00" fill="#000000">id : int(11)</text>
</g>
<!-- user -->
<g id="node12" class="node">
<title>user</title>
<polygon fill="none" stroke="#000000" points="319.2104,-.5 319.2104,-192.5 474.7582,-192.5 474.7582,-.5 319.2104,-.5"/>
<text text-anchor="middle" x="396.9843" y="-175.9" font-family="Times,serif" font-size="14.00" fill="#000000">user</text>
<polyline fill="none" stroke="#000000" points="319.2104,-167.7 474.7582,-167.7 "/>
<text text-anchor="start" x="327.2104" y="-151.1" font-family="Times,serif" font-size="14.00" fill="#000000">email : varchar(180)</text>
<text text-anchor="start" x="327.2104" y="-134.3" font-family="Times,serif" font-size="14.00" fill="#000000"> roles : longtext</text>
<text text-anchor="start" x="327.2104" y="-117.5" font-family="Times,serif" font-size="14.00" fill="#000000"> password : varchar(255)</text>
<text text-anchor="start" x="327.2104" y="-100.7" font-family="Times,serif" font-size="14.00" fill="#000000"> firstname : varchar(255)</text>
<text text-anchor="start" x="327.2104" y="-83.9" font-family="Times,serif" font-size="14.00" fill="#000000"> lastname : varchar(255)</text>
<text text-anchor="start" x="327.2104" y="-67.1" font-family="Times,serif" font-size="14.00" fill="#000000"> address : varchar(255)</text>
<text text-anchor="start" x="327.2104" y="-50.3" font-family="Times,serif" font-size="14.00" fill="#000000"> zipcode : varchar(255)</text>
<text text-anchor="start" x="327.2104" y="-33.5" font-family="Times,serif" font-size="14.00" fill="#000000"> city : varchar(255)</text>
<polyline fill="none" stroke="#000000" points="319.2104,-25.3 474.7582,-25.3 "/>
<text text-anchor="start" x="327.2104" y="-8.7" font-family="Times,serif" font-size="14.00" fill="#000000">id : int(11)</text>
</g>
<!-- bank information&#45;&gt;user -->
<g id="edge1" class="edge">
<title>bank information-&gt;user</title>
<path fill="none" stroke="#595959" d="M492.751,-268C458.9741,-268 435.6672,-268 435.6672,-268 435.6672,-268 435.6672,-202.7776 435.6672,-202.7776"/>
<polygon fill="#595959" stroke="#595959" points="439.1673,-202.7776 435.6672,-192.7776 432.1673,-202.7776 439.1673,-202.7776"/>
<text text-anchor="middle" x="540.4296" y="-215.2" font-family="Times,serif" font-size="14.00" fill="#000000">id</text>
</g>
<!-- bank information&#45;&gt;user -->
<g id="edge2" class="edge">
<title>bank information-&gt;user</title>
<path fill="none" stroke="#595959" d="M492.4462,-273C438.335,-273 396.9843,-273 396.9843,-273 396.9843,-273 396.9843,-202.7551 396.9843,-202.7551"/>
<polygon fill="#595959" stroke="#595959" points="400.4844,-202.7551 396.9843,-192.7551 393.4844,-202.7551 400.4844,-202.7551"/>
<text text-anchor="middle" x="654.9801" y="-215.2" font-family="Times,serif" font-size="14.00" fill="#000000">user_id:id</text>
</g>
<!-- cart &#160;/* current_cart_of_the_user */ -->
<g id="node2" class="node">
<title>cart  /* current_cart_of_the_user */</title>
<polygon fill="none" stroke="#000000" points="0,-288.3 0,-396.3 209.9686,-396.3 209.9686,-288.3 0,-288.3"/>
<text text-anchor="middle" x="104.9843" y="-379.7" font-family="Times,serif" font-size="14.00" fill="#000000">cart /* current_cart_of_the_user */</text>
<polyline fill="none" stroke="#000000" points="0,-371.5 209.9686,-371.5 "/>
<text text-anchor="start" x="8" y="-354.9" font-family="Times,serif" font-size="14.00" fill="#000000">cart_list : longtext</text>
<text text-anchor="start" x="8" y="-338.1" font-family="Times,serif" font-size="14.00" fill="#000000"> user_id : int(11)</text>
<text text-anchor="start" x="8" y="-321.3" font-family="Times,serif" font-size="14.00" fill="#000000"> date_added_to_cart : timestamp</text>
<polyline fill="none" stroke="#000000" points="0,-313.1 209.9686,-313.1 "/>
<text text-anchor="start" x="8" y="-296.5" font-family="Times,serif" font-size="14.00" fill="#000000">id : int(11)</text>
</g>
<!-- cart &#160;/* current_cart_of_the_user */&#45;&gt;user -->
<g id="edge3" class="edge">
<title>cart  /* current_cart_of_the_user */-&gt;user</title>
<path fill="none" stroke="#595959" d="M104.9843,-288.2484C104.9843,-215.746 104.9843,-96 104.9843,-96 104.9843,-96 309.1172,-96 309.1172,-96"/>
<polygon fill="#595959" stroke="#595959" points="309.1173,-99.5001 319.1172,-96 309.1172,-92.5001 309.1173,-99.5001"/>
<text text-anchor="middle" x="132.9801" y="-215.2" font-family="Times,serif" font-size="14.00" fill="#000000">user_id:id</text>
</g>
<!-- categories -->
<g id="node3" class="node">
<title>categories</title>
<polygon fill="none" stroke="#000000" points="943.236,-50.9 943.236,-142.1 1072.7326,-142.1 1072.7326,-50.9 943.236,-50.9"/>
<text text-anchor="middle" x="1007.9843" y="-125.5" font-family="Times,serif" font-size="14.00" fill="#000000">categories</text>
<polyline fill="none" stroke="#000000" points="943.236,-117.3 1072.7326,-117.3 "/>
<text text-anchor="start" x="951.236" y="-100.7" font-family="Times,serif" font-size="14.00" fill="#000000">name : varchar(255)</text>
<text text-anchor="start" x="951.236" y="-83.9" font-family="Times,serif" font-size="14.00" fill="#000000"> slug : varchar(255)</text>
<polyline fill="none" stroke="#000000" points="943.236,-75.7 1072.7326,-75.7 "/>
<text text-anchor="start" x="951.236" y="-59.1" font-family="Times,serif" font-size="14.00" fill="#000000">id : int(11)</text>
</g>
<!-- doctrine_migration_versions -->
<g id="node4" class="node">
<title>doctrine_migration_versions</title>
<polygon fill="none" stroke="#000000" points="1177.5025,-721.1 1177.5025,-812.3 1354.4661,-812.3 1354.4661,-721.1 1177.5025,-721.1"/>
<text text-anchor="middle" x="1265.9843" y="-795.7" font-family="Times,serif" font-size="14.00" fill="#000000">doctrine_migration_versions</text>
<polyline fill="none" stroke="#000000" points="1177.5025,-787.5 1354.4661,-787.5 "/>
<text text-anchor="start" x="1185.5025" y="-770.9" font-family="Times,serif" font-size="14.00" fill="#000000">executed_at : datetime</text>
<text text-anchor="start" x="1185.5025" y="-754.1" font-family="Times,serif" font-size="14.00" fill="#000000"> execution_time : int(11)</text>
<polyline fill="none" stroke="#000000" points="1177.5025,-745.9 1354.4661,-745.9 "/>
<text text-anchor="start" x="1185.5025" y="-729.3" font-family="Times,serif" font-size="14.00" fill="#000000">version : varchar(191)</text>
</g>
<!-- media_object -->
<g id="node5" class="node">
<title>media_object</title>
<polygon fill="none" stroke="#000000" points="1090.5151,-59.3 1090.5151,-133.7 1239.4535,-133.7 1239.4535,-59.3 1090.5151,-59.3"/>
<text text-anchor="middle" x="1164.9843" y="-117.1" font-family="Times,serif" font-size="14.00" fill="#000000">media_object</text>
<polyline fill="none" stroke="#000000" points="1090.5151,-108.9 1239.4535,-108.9 "/>
<text text-anchor="start" x="1098.5151" y="-92.3" font-family="Times,serif" font-size="14.00" fill="#000000">file_path : varchar(255)</text>
<polyline fill="none" stroke="#000000" points="1090.5151,-84.1 1239.4535,-84.1 "/>
<text text-anchor="start" x="1098.5151" y="-67.5" font-family="Times,serif" font-size="14.00" fill="#000000">id : int(11)</text>
</g>
<!-- notation &#160;/* notation of users&#39;s products */ -->
<g id="node6" class="node">
<title>notation  /* notation of users's products */</title>
<polygon fill="none" stroke="#000000" points="142.2994,-492.1 142.2994,-650.5 651.6692,-650.5 651.6692,-492.1 142.2994,-492.1"/>
<text text-anchor="middle" x="396.9843" y="-633.9" font-family="Times,serif" font-size="14.00" fill="#000000">notation /* notation of users's products */</text>
<polyline fill="none" stroke="#000000" points="142.2994,-625.7 651.6692,-625.7 "/>
<text text-anchor="start" x="150.2994" y="-609.1" font-family="Times,serif" font-size="14.00" fill="#000000">product_id : int(11)</text>
<text text-anchor="start" x="150.2994" y="-592.3" font-family="Times,serif" font-size="14.00" fill="#000000"> notation_date : timestamp</text>
<text text-anchor="start" x="150.2994" y="-575.5" font-family="Times,serif" font-size="14.00" fill="#000000"> commentary : text</text>
<text text-anchor="start" x="150.2994" y="-558.7" font-family="Times,serif" font-size="14.00" fill="#000000"> suggestions : text</text>
<text text-anchor="start" x="150.2994" y="-541.9" font-family="Times,serif" font-size="14.00" fill="#000000"> user_id /* NULL because we would like to allow the user to rank the prod... */ : int(11)</text>
<text text-anchor="start" x="150.2994" y="-525.1" font-family="Times,serif" font-size="14.00" fill="#000000"> ranking_stars : int(11)</text>
<polyline fill="none" stroke="#000000" points="142.2994,-516.9 651.6692,-516.9 "/>
<text text-anchor="start" x="150.2994" y="-500.3" font-family="Times,serif" font-size="14.00" fill="#000000">id : int(11)</text>
</g>
<!-- orders -->
<g id="node7" class="node">
<title>orders</title>
<polygon fill="none" stroke="#000000" points="319.6185,-279.9 319.6185,-404.7 474.3501,-404.7 474.3501,-279.9 319.6185,-279.9"/>
<text text-anchor="middle" x="396.9843" y="-388.1" font-family="Times,serif" font-size="14.00" fill="#000000">orders</text>
<polyline fill="none" stroke="#000000" points="319.6185,-379.9 474.3501,-379.9 "/>
<text text-anchor="start" x="327.6185" y="-363.3" font-family="Times,serif" font-size="14.00" fill="#000000">user_id : int(11)</text>
<text text-anchor="start" x="327.6185" y="-346.5" font-family="Times,serif" font-size="14.00" fill="#000000"> reference : varchar(255)</text>
<text text-anchor="start" x="327.6185" y="-329.7" font-family="Times,serif" font-size="14.00" fill="#000000"> purchased_in : datetime</text>
<text text-anchor="start" x="327.6185" y="-312.9" font-family="Times,serif" font-size="14.00" fill="#000000"> command : longtext</text>
<polyline fill="none" stroke="#000000" points="319.6185,-304.7 474.3501,-304.7 "/>
<text text-anchor="start" x="327.6185" y="-288.1" font-family="Times,serif" font-size="14.00" fill="#000000">id : int(11)</text>
</g>
<!-- notation &#160;/* notation of users&#39;s products */&#45;&gt;orders -->
<g id="edge4" class="edge">
<title>notation  /* notation of users's products */-&gt;orders</title>
<path fill="none" stroke="#595959" d="M371.1957,-491.8496C371.1957,-491.8496 371.1957,-415.0125 371.1957,-415.0125"/>
<polygon fill="#595959" stroke="#595959" points="374.6958,-415.0124 371.1957,-405.0125 367.6958,-415.0125 374.6958,-415.0124"/>
<text text-anchor="middle" x="424.9801" y="-461" font-family="Times,serif" font-size="14.00" fill="#000000">user_id:id</text>
</g>
<!-- product -->
<g id="node9" class="node">
<title>product</title>
<polygon fill="none" stroke="#000000" points="1010.938,-246.3 1010.938,-438.3 1163.0306,-438.3 1163.0306,-246.3 1010.938,-246.3"/>
<text text-anchor="middle" x="1086.9843" y="-421.7" font-family="Times,serif" font-size="14.00" fill="#000000">product</text>
<polyline fill="none" stroke="#000000" points="1010.938,-413.5 1163.0306,-413.5 "/>
<text text-anchor="start" x="1018.938" y="-396.9" font-family="Times,serif" font-size="14.00" fill="#000000">name : varchar(255)</text>
<text text-anchor="start" x="1018.938" y="-380.1" font-family="Times,serif" font-size="14.00" fill="#000000"> slug : varchar(255)</text>
<text text-anchor="start" x="1018.938" y="-363.3" font-family="Times,serif" font-size="14.00" fill="#000000"> description : longtext</text>
<text text-anchor="start" x="1018.938" y="-346.5" font-family="Times,serif" font-size="14.00" fill="#000000"> price : double</text>
<text text-anchor="start" x="1018.938" y="-329.7" font-family="Times,serif" font-size="14.00" fill="#000000"> stock : int(11) unsigned</text>
<text text-anchor="start" x="1018.938" y="-312.9" font-family="Times,serif" font-size="14.00" fill="#000000"> categories_id : int(11)</text>
<text text-anchor="start" x="1018.938" y="-296.1" font-family="Times,serif" font-size="14.00" fill="#000000"> image_id : int(11)</text>
<text text-anchor="start" x="1018.938" y="-279.3" font-family="Times,serif" font-size="14.00" fill="#000000"> weight : float</text>
<polyline fill="none" stroke="#000000" points="1010.938,-271.1 1163.0306,-271.1 "/>
<text text-anchor="start" x="1018.938" y="-254.5" font-family="Times,serif" font-size="14.00" fill="#000000">id : int(11)</text>
</g>
<!-- notation &#160;/* notation of users&#39;s products */&#45;&gt;product -->
<g id="edge5" class="edge">
<title>notation  /* notation of users's products */-&gt;product</title>
<path fill="none" stroke="#595959" d="M652.0698,-500C830.3296,-500 1036.5871,-500 1036.5871,-500 1036.5871,-500 1036.5871,-448.5775 1036.5871,-448.5775"/>
<polygon fill="#595959" stroke="#595959" points="1040.0872,-448.5775 1036.5871,-438.5775 1033.0872,-448.5775 1040.0872,-448.5775"/>
<text text-anchor="middle" x="602.7031" y="-461" font-family="Times,serif" font-size="14.00" fill="#000000">product_id:id</text>
</g>
<!-- notation &#160;/* notation of users&#39;s products */&#45;&gt;user -->
<g id="edge6" class="edge">
<title>notation  /* notation of users's products */-&gt;user</title>
<path fill="none" stroke="#595959" d="M483.7618,-491.9057C483.7618,-374.1628 483.7618,-167 483.7618,-167 483.7618,-167 482.8658,-167 482.8658,-167"/>
<polygon fill="#595959" stroke="#595959" points="484.802,-163.5001 474.8019,-167 484.8019,-170.5001 484.802,-163.5001"/>
<text text-anchor="middle" x="273.9801" y="-338.1" font-family="Times,serif" font-size="14.00" fill="#000000">user_id:id</text>
</g>
<!-- orders&#45;&gt;user -->
<g id="edge7" class="edge">
<title>orders-&gt;user</title>
<path fill="none" stroke="#595959" d="M358.3014,-279.6383C358.3014,-279.6383 358.3014,-202.5144 358.3014,-202.5144"/>
<polygon fill="#595959" stroke="#595959" points="361.8015,-202.5144 358.3014,-192.5144 354.8015,-202.5145 361.8015,-202.5144"/>
<text text-anchor="middle" x="424.9801" y="-215.2" font-family="Times,serif" font-size="14.00" fill="#000000">user_id:id</text>
</g>
<!-- orders_details -->
<g id="node8" class="node">
<title>orders_details</title>
<polygon fill="none" stroke="#000000" points="784.4096,-508.9 784.4096,-633.7 913.559,-633.7 913.559,-508.9 784.4096,-508.9"/>
<text text-anchor="middle" x="848.9843" y="-617.1" font-family="Times,serif" font-size="14.00" fill="#000000">orders_details</text>
<polyline fill="none" stroke="#000000" points="784.4096,-608.9 913.559,-608.9 "/>
<text text-anchor="start" x="792.4096" y="-592.3" font-family="Times,serif" font-size="14.00" fill="#000000">orders_id : int(11)</text>
<text text-anchor="start" x="792.4096" y="-575.5" font-family="Times,serif" font-size="14.00" fill="#000000"> product_id : int(11)</text>
<text text-anchor="start" x="792.4096" y="-558.7" font-family="Times,serif" font-size="14.00" fill="#000000"> quantity : int(11)</text>
<text text-anchor="start" x="792.4096" y="-541.9" font-family="Times,serif" font-size="14.00" fill="#000000"> price : int(11)</text>
<polyline fill="none" stroke="#000000" points="784.4096,-533.7 913.559,-533.7 "/>
<text text-anchor="start" x="792.4096" y="-517.1" font-family="Times,serif" font-size="14.00" fill="#000000">id : int(11)</text>
</g>
<!-- orders_details&#45;&gt;orders -->
<g id="edge8" class="edge">
<title>orders_details-&gt;orders</title>
<path fill="none" stroke="#595959" d="M827.4594,-508.85C827.4594,-485.7114 827.4594,-465 827.4594,-465 827.4594,-465 422.7729,-465 422.7729,-465 422.7729,-465 422.7729,-414.7284 422.7729,-414.7284"/>
<polygon fill="#595959" stroke="#595959" points="426.273,-414.7283 422.7729,-404.7284 419.273,-414.7284 426.273,-414.7283"/>
<text text-anchor="middle" x="741.8104" y="-461" font-family="Times,serif" font-size="14.00" fill="#000000">orders_id:id</text>
</g>
<!-- orders_details&#45;&gt;product -->
<g id="edge9" class="edge">
<title>orders_details-&gt;product</title>
<path fill="none" stroke="#595959" d="M870.5092,-508.5009C870.5092,-470.7631 870.5092,-430 870.5092,-430 870.5092,-430 1000.6633,-430 1000.6633,-430"/>
<polygon fill="#595959" stroke="#595959" points="1000.6633,-433.5001 1010.6633,-430 1000.6632,-426.5001 1000.6633,-433.5001"/>
<text text-anchor="middle" x="946.7031" y="-461" font-family="Times,serif" font-size="14.00" fill="#000000">product_id:id</text>
</g>
<!-- product&#45;&gt;categories -->
<g id="edge10" class="edge">
<title>product-&gt;categories</title>
<path fill="none" stroke="#595959" d="M1041.8353,-246.2112C1041.8353,-246.2112 1041.8353,-152.1671 1041.8353,-152.1671"/>
<polygon fill="#595959" stroke="#595959" points="1045.3354,-152.1671 1041.8353,-142.1671 1038.3354,-152.1672 1045.3354,-152.1671"/>
<text text-anchor="middle" x="1052.6926" y="-215.2" font-family="Times,serif" font-size="14.00" fill="#000000">categories_id:id</text>
</g>
<!-- product&#45;&gt;media_object -->
<g id="edge11" class="edge">
<title>product-&gt;media_object</title>
<path fill="none" stroke="#595959" d="M1126.7729,-246.2112C1126.7729,-246.2112 1126.7729,-143.8923 1126.7729,-143.8923"/>
<polygon fill="#595959" stroke="#595959" points="1130.2729,-143.8923 1126.7729,-133.8923 1123.2729,-143.8923 1130.2729,-143.8923"/>
<text text-anchor="middle" x="1198.4254" y="-215.2" font-family="Times,serif" font-size="14.00" fill="#000000">image_id:id</text>
</g>
<!-- stock -->
<g id="node10" class="node">
<title>stock</title>
<polygon fill="none" stroke="#000000" points="1087.8854,-508.9 1087.8854,-633.7 1278.0832,-633.7 1278.0832,-508.9 1087.8854,-508.9"/>
<text text-anchor="middle" x="1182.9843" y="-617.1" font-family="Times,serif" font-size="14.00" fill="#000000">stock</text>
<polyline fill="none" stroke="#000000" points="1087.8854,-608.9 1278.0832,-608.9 "/>
<text text-anchor="start" x="1095.8854" y="-592.3" font-family="Times,serif" font-size="14.00" fill="#000000">product_id : int(11)</text>
<text text-anchor="start" x="1095.8854" y="-575.5" font-family="Times,serif" font-size="14.00" fill="#000000"> last_order : datetime</text>
<text text-anchor="start" x="1095.8854" y="-558.7" font-family="Times,serif" font-size="14.00" fill="#000000"> suppliers : int(11)</text>
<text text-anchor="start" x="1095.8854" y="-541.9" font-family="Times,serif" font-size="14.00" fill="#000000"> stock_count : int(11) unsigned</text>
<polyline fill="none" stroke="#000000" points="1087.8854,-533.7 1278.0832,-533.7 "/>
<text text-anchor="start" x="1095.8854" y="-517.1" font-family="Times,serif" font-size="14.00" fill="#000000">id : int(11)</text>
</g>
<!-- stock&#45;&gt;product -->
<g id="edge12" class="edge">
<title>stock-&gt;product</title>
<path fill="none" stroke="#595959" d="M1125.458,-508.7247C1125.458,-508.7247 1125.458,-448.3384 1125.458,-448.3384"/>
<polygon fill="#595959" stroke="#595959" points="1128.9581,-448.3383 1125.458,-438.3384 1121.9581,-448.3384 1128.9581,-448.3383"/>
<text text-anchor="middle" x="1151.7031" y="-461" font-family="Times,serif" font-size="14.00" fill="#000000">product_id:id</text>
</g>
<!-- suppliers -->
<g id="node11" class="node">
<title>suppliers</title>
<polygon fill="none" stroke="#000000" points="990.3854,-704.3 990.3854,-829.1 1159.5832,-829.1 1159.5832,-704.3 990.3854,-704.3"/>
<text text-anchor="middle" x="1074.9843" y="-812.5" font-family="Times,serif" font-size="14.00" fill="#000000">suppliers</text>
<polyline fill="none" stroke="#000000" points="990.3854,-804.3 1159.5832,-804.3 "/>
<text text-anchor="start" x="998.3854" y="-787.7" font-family="Times,serif" font-size="14.00" fill="#000000">name : text</text>
<text text-anchor="start" x="998.3854" y="-770.9" font-family="Times,serif" font-size="14.00" fill="#000000"> adresse : text</text>
<text text-anchor="start" x="998.3854" y="-754.1" font-family="Times,serif" font-size="14.00" fill="#000000"> phone_number : text</text>
<text text-anchor="start" x="998.3854" y="-737.3" font-family="Times,serif" font-size="14.00" fill="#000000"> invoices : int(11) unsigned</text>
<polyline fill="none" stroke="#000000" points="990.3854,-729.1 1159.5832,-729.1 "/>
<text text-anchor="start" x="998.3854" y="-712.5" font-family="Times,serif" font-size="14.00" fill="#000000">id : int(11)</text>
</g>
<!-- suppliers&#45;&gt;product -->
<g id="edge13" class="edge">
<title>suppliers-&gt;product</title>
<path fill="none" stroke="#595959" d="M1062.2363,-704.0783C1062.2363,-704.0783 1062.2363,-448.6071 1062.2363,-448.6071"/>
<polygon fill="#595959" stroke="#595959" points="1065.7364,-448.607 1062.2363,-438.6071 1058.7364,-448.6071 1065.7364,-448.607"/>
<text text-anchor="middle" x="1064.4296" y="-567.1" font-family="Times,serif" font-size="14.00" fill="#000000">id</text>
</g>
<!-- suppliers&#45;&gt;stock -->
<g id="edge14" class="edge">
<title>suppliers-&gt;stock</title>
<path fill="none" stroke="#595959" d="M1123.7343,-704.0679C1123.7343,-704.0679 1123.7343,-643.9126 1123.7343,-643.9126"/>
<polygon fill="#595959" stroke="#595959" points="1127.2344,-643.9126 1123.7343,-633.9126 1120.2344,-643.9126 1127.2344,-643.9126"/>
<text text-anchor="middle" x="1142.4296" y="-673.2" font-family="Times,serif" font-size="14.00" fill="#000000">id</text>
</g>
</g>
</svg>